<?xml version="1.0" encoding="UTF-8"?>
<!DOCTYPE svg PUBLIC "-//W3C//DTD SVG 1.1//EN" "http://www.w3.org/Graphics/SVG/1.1/DTD/svg11.dtd">
<!-- Creator: CorelDRAW X7 -->
<svg xmlns="http://www.w3.org/2000/svg" xml:space="preserve" width="2550px" height="3300px" version="1.1" style="shape-rendering:geometricPrecision; text-rendering:geometricPrecision; image-rendering:optimizeQuality; fill-rule:evenodd; clip-rule:evenodd"
viewBox="0 0 2550 3300"
 xmlns:xlink="http://www.w3.org/1999/xlink">
 <defs>
  <style type="text/css">
   <![CDATA[
    .fil0 {fill:#123B6D}
    .fil1 {fill:#4B3120}
    .fil2 {fill:#B75920}
    .fil3 {fill:#DBA15B}
    .fil4 {fill:#FBBC3E}
   ]]>
  </style>
 </defs>
 <g id="Camada_x0020_1">
  <metadata id="CorelCorpID_0Corel-Layer"/>
  <path class="fil0" d="M1061 1228c26,10 56,26 81,39 254,126 397,132 682,86 -13,-93 -42,-138 -22,-264 20,-125 71,-177 86,-220 -250,32 -365,49 -595,-53 -55,-25 -102,-56 -151,-83l-81 495z"/>
  <path class="fil1" d="M729 2354c55,-3 128,0 188,0 38,0 162,-7 184,4l-1 -162c19,-2 7,4 17,-9 -13,-56 -4,-23 -9,-75 -3,-2 -7,-2 -11,-4l-1 25c0,-1 -1,3 -2,4 6,12 12,30 8,43 -13,-4 -13,-21 -98,-22 -42,0 -82,24 -95,23 -16,-1 -28,-14 -44,-17 -21,-5 -33,4 -53,5 -26,1 -34,-10 -50,-9 -17,0 -19,12 -41,16 0,-19 -2,-26 9,-41 -11,-14 -14,-13 2,-31 -9,5 -7,2 -15,8l1 62c3,12 8,8 9,25 1,40 -4,85 0,123l2 32z"/>
  <path class="fil2" d="M897 2063l29 0 135 -835 81 -495c4,-29 11,-55 0,-83 -26,8 -27,43 -32,73 -65,385 -122,779 -188,1162 -6,37 -28,147 -25,178z"/>
  <path class="fil3" d="M788 2077c-14,-2 -36,8 -46,15 -13,9 -9,11 -10,12 -16,18 -13,17 -2,31 19,-10 224,-5 274,-4 30,0 71,-4 87,4 1,1 2,2 3,2 1,-1 2,-5 2,-4l1 -25c-1,-8 4,0 -3,-7 -6,-5 -1,-3 -11,-5 -44,-20 -101,-37 -157,-33l-29 0c-38,-3 -74,7 -109,14z"/>
  <path class="fil3" d="M721 2373c26,33 38,23 87,23l225 1c36,0 71,1 68,-39 -22,-11 -146,-4 -184,-4 -60,0 -133,-3 -188,0 -8,-2 -3,-13 -11,6 -6,16 3,13 3,13z"/>
  <path class="fil4" d="M730 2135c-11,15 -9,22 -9,41 22,-4 24,-16 41,-16 16,-1 24,10 50,9 20,-1 32,-10 53,-5 16,3 28,16 44,17 13,1 53,-23 95,-23 85,1 85,18 98,22 4,-13 -2,-31 -8,-43 -1,0 -2,-1 -3,-2 -16,-8 -57,-4 -87,-4 -50,-1 -255,-6 -274,4z"/>
 </g>
</svg>
